<?xml version="1.0" encoding="utf-8"?>
<!-- Generator: Adobe Illustrator 16.0.0, SVG Export Plug-In . SVG Version: 6.00 Build 0)  -->
<!DOCTYPE svg PUBLIC "-//W3C//DTD SVG 1.1//EN" "http://www.w3.org/Graphics/SVG/1.1/DTD/svg11.dtd" [
	<!ENTITY ns_flows "http://ns.adobe.com/Flows/1.0/">
	<!ENTITY ns_extend "http://ns.adobe.com/Extensibility/1.0/">
	<!ENTITY ns_ai "http://ns.adobe.com/AdobeIllustrator/10.0/">
	<!ENTITY ns_graphs "http://ns.adobe.com/Graphs/1.0/">
	<!ENTITY ns_vars "http://ns.adobe.com/Variables/1.0/">
	<!ENTITY ns_imrep "http://ns.adobe.com/ImageReplacement/1.0/">
	<!ENTITY ns_sfw "http://ns.adobe.com/SaveForWeb/1.0/">
	<!ENTITY ns_custom "http://ns.adobe.com/GenericCustomNamespace/1.0/">
	<!ENTITY ns_adobe_xpath "http://ns.adobe.com/XPath/1.0/">
]>
<svg version="1.1" xmlns:x="&ns_extend;" xmlns:i="&ns_ai;" xmlns:graph="&ns_graphs;"
	 xmlns="http://www.w3.org/2000/svg" xmlns:xlink="http://www.w3.org/1999/xlink" xmlns:a="http://ns.adobe.com/AdobeSVGViewerExtensions/3.0/"
	 x="0px" y="0px" width="1600px" height="780px" viewBox="0 0 1600 780" enable-background="new 0 0 1600 780" xml:space="preserve"
	>
<metadata><?xpacket begin="﻿" id="W5M0MpCehiHzreSzNTczkc9d"?>
<x:xmpmeta xmlns:x="adobe:ns:meta/" x:xmptk="Adobe XMP Core 5.3-c011 66.145661, 2012/02/06-14:56:27        ">
   <rdf:RDF xmlns:rdf="http://www.w3.org/1999/02/22-rdf-syntax-ns#">
      <rdf:Description rdf:about=""
            xmlns:xmp="http://ns.adobe.com/xap/1.0/"
            xmlns:xmpGImg="http://ns.adobe.com/xap/1.0/g/img/">
         <xmp:CreatorTool>Adobe Illustrator CS6 (Macintosh)</xmp:CreatorTool>
         <xmp:CreateDate>2015-05-05T16:34:13-05:00</xmp:CreateDate>
         <xmp:MetadataDate>2015-05-05T16:34:13-05:00</xmp:MetadataDate>
         <xmp:ModifyDate>2015-05-05T16:34:13-05:00</xmp:ModifyDate>
         <xmp:Thumbnails>
            <rdf:Alt>
               <rdf:li rdf:parseType="Resource">
                  <xmpGImg:width>256</xmpGImg:width>
                  <xmpGImg:height>168</xmpGImg:height>
                  <xmpGImg:format>JPEG</xmpGImg:format>
                  <xmpGImg:image>/9j/4AAQSkZJRgABAgEASABIAAD/7QAsUGhvdG9zaG9wIDMuMAA4QklNA+0AAAAAABAASAAAAAEA&#xA;AQBIAAAAAQAB/+4ADkFkb2JlAGTAAAAAAf/bAIQABgQEBAUEBgUFBgkGBQYJCwgGBggLDAoKCwoK&#xA;DBAMDAwMDAwQDA4PEA8ODBMTFBQTExwbGxscHx8fHx8fHx8fHwEHBwcNDA0YEBAYGhURFRofHx8f&#xA;Hx8fHx8fHx8fHx8fHx8fHx8fHx8fHx8fHx8fHx8fHx8fHx8fHx8fHx8fHx8f/8AAEQgAqAEAAwER&#xA;AAIRAQMRAf/EAaIAAAAHAQEBAQEAAAAAAAAAAAQFAwIGAQAHCAkKCwEAAgIDAQEBAQEAAAAAAAAA&#xA;AQACAwQFBgcICQoLEAACAQMDAgQCBgcDBAIGAnMBAgMRBAAFIRIxQVEGE2EicYEUMpGhBxWxQiPB&#xA;UtHhMxZi8CRygvElQzRTkqKyY3PCNUQnk6OzNhdUZHTD0uIIJoMJChgZhJRFRqS0VtNVKBry4/PE&#xA;1OT0ZXWFlaW1xdXl9WZ2hpamtsbW5vY3R1dnd4eXp7fH1+f3OEhYaHiImKi4yNjo+Ck5SVlpeYmZ&#xA;qbnJ2en5KjpKWmp6ipqqusra6voRAAICAQIDBQUEBQYECAMDbQEAAhEDBCESMUEFURNhIgZxgZEy&#xA;obHwFMHR4SNCFVJicvEzJDRDghaSUyWiY7LCB3PSNeJEgxdUkwgJChgZJjZFGidkdFU38qOzwygp&#xA;0+PzhJSktMTU5PRldYWVpbXF1eX1RlZmdoaWprbG1ub2R1dnd4eXp7fH1+f3OEhYaHiImKi4yNjo&#xA;+DlJWWl5iZmpucnZ6fkqOkpaanqKmqq6ytrq+v/aAAwDAQACEQMRAD8A9U4q7FXYq7FXYq7FXYq7&#xA;FXYqk+qecPLGl1F7qMKSL1iVvUkH+wTk34ZlYtFmyfTEuBqO1NNh+uYB7uZ+QYrqH50aFEStjZz3&#xA;bdi3GFD8j8bf8Lmxx9h5D9REftdJn9rMMdoRlL7P1/cgf8f/AJial/xytB9OJvsyNFK//JRjGn4Z&#xA;b/J2lx/Xk+0f2uN/LWvzf3WGh7ift2DvqX503/8Ae3CWSHoOUCUr/wAYg7ffjx6CHIcXz/Snwu2M&#xA;vOXB/pR91lv/AJV3+YVz/vb5kYA9VWe4ceHQ8B0x/lLTR+nH9gX+Q9fP68/+ykf1O/5U5qMu9x5h&#xA;ct0/umfb5mUYP5aiOWP7f2L/AKFch+rMfl/x5w/JGzYVXWHIqRUQr1Bof28P8uy/mfb+xR7Iw/1Q&#xA;/wCl/a3/AMqQth9nV3Ddj6A6/wDB4P5eP8z7f2L/AKEI/wCqH/S/ta/5VDrMG9p5icN1+w8e491l&#xA;bH+WcZ+rH+Pkv+hjNH6Mx+RH++d/gr80bLez1/11H2UeeUn/AIGRWX8cP57Ry+rHXwH6F/kntLH9&#xA;Ga/86X6RTX6S/ObTN57Rb+Neh4RS1HygKPj4Wgycjw/Mfej8x2vh+qPGPcD/ALmiui/OG+s5BDre&#xA;iSW79yhaNv8AkXKv/G2A9ixkLxzv8d4ZR9qJ4zWbEYn5fYf1sk0v8zvJ1/Rfrn1SQ/sXS+nT5vvH&#xA;/wANmDl7Kzw6X7vxbttP7Q6TL/Fwn+lt9vL7WTwzQzxiWGRZY23V0IZT8iM18okGi7mMxIWDYX4G&#xA;TsVdirsVdirsVdirsVdirsVdirsVdirsVdiqB1bXNJ0iD19Suo7aM148z8TU7Ko+JvoGXYcE8hqA&#xA;txtTrMWCPFkkIhgepfm9LcXH1Py1psl5O2ySSqxr/qxJ8RHzIzcYuxhEcWWXCPx1eZ1HtOZy4NPA&#xA;yl5/8SN/tQo8rfmb5kHLWdQ/R9o/WAtT4f8AjDFQH/ZtXLPzekwf3ceKX46n9DT/ACd2jq/76fBH&#xA;u/47H9JTrS/ye8sWvFrxpr+QdQ7enHX2VKN97ZiZe2s0vpqLsNN7LaaH13M/IfZ+tlenaBommgCx&#xA;sYLcj9qONQx+bU5H7812TUZJ/VIl3mDRYcX0QjH3BH5S5LsVdirsVeYeZr7zV5M8w3Gq2xN3oeoS&#xA;CWSKT+7WR61QUNVai7MNiOtaZ0Glx4dViEDtkiHje0M2p7Pzyyx9WGZujyvu8j5/ej9E87eXlu7z&#xA;Vnurp0vp4IIrdy0iQGWINTj+z+8Vx9G22UZ9Dl4RCo+kE330f1U5Wk7XwcUsplM8coiuYjcfs3B/&#xA;QyjTvN/l3U9QbT7C7+s3Shi6oknFQhoSXKhKV265gZdFlxx4pCg7jB2pp82Tw8cuKXuP31ScZiuw&#xA;diqyaCCeMxTxrLG3VHAZT9BwxkQbDGcIyFSFhjWq/lp5P1CrGyFrKf8AdlqfSp/sBWP/AIXM/F2p&#xA;nh/Ffv3/AGuo1PYGky/w8J/o7fZy+xi035XeZdHla58s6uwPX0XJhY+xI5I/+yAzYx7WxZRWaH6f&#xA;2uln7O6jAeLTZPhy/YfjTUH5kebtBmW2806WzpXj9YVRG59wRWJ/9jTGXZmDMLwy+H43CIdvarTH&#xA;h1OO/Pl/x0/Cmb6B5z8u66oFjdL65G9rL8Eo/wBiftf7GozU6jQ5cP1Dbv6PR6LtXT6n6JeruOx/&#xA;HutO8xHYuxV2KuxV2KuxV2KuxV2KuxV2KofUNRsdOtXu76dLe3T7Ujmg+Q8T7DJ48UpnhiLLVnzw&#xA;xRMpkRiHnGq/mZrOsXR0zyhZO7tUG7ZavTpyVT8KD/Kf8M3uLsvHiHHnPw/HP4PJan2gzZ5eHpIn&#xA;+t1/UPefsVNH/Ka4u5/r/mq+e6uH3a3Ryx+Tytv9C/fkc3bAiOHDGh3/ALGel9mpTPHqpmUu6/vP&#xA;6vmz/TNH0vS4PQ0+1jto+4jUAn/Wbq305psuaeQ3I29Pp9Liwx4ccREeSMypyHYq7FXYq7FXYq7F&#xA;VK6tLW7t3t7qJJ4JBR4pFDKR7g5KEzE2DRYZMUZxMZAGJ6F8/wDnTyrceWdW9D1hJDOGktnWob06&#xA;0o21Ae2xzs9Dqxnhdbjm+Xdrdmy0eXhuwdx7nqf5a2EVpo1sYtN+rfWrdJpr4yK5mcnYUFSBQ1pt&#xA;Twznu1MhlkNyujVdz2nYGEY8Mahw8UQTK7ssyzVvQOxV2KuxV2KrJ7eC4iaG4jSaFxR45FDKR7g1&#xA;GSjIxNg0WM4RkKkLHmwXX/yj0a8Y3GkSNpt2PiVVq0JYb9PtL/sT9GbbT9s5I7T9Q+15vW+zGHJ6&#xA;sR8OX2fs+HySWDzX558nTra+Yrdr/Tq8Y7knkaf5E1Pi8eL7/LMuWj0+qF4jwy7v2fqddDtLW6A8&#xA;OoHHj7/1S/Qd/c9C8v8AmjRNet/V064DsorJA3wyp/rJ/EbZpdRpMmE1Ifqep0XaOHUxvGb8uo+C&#xA;a5jOc7FXYq7FXYq7FXYq7FWM+cfPml+XIjG1LnUnFYrRT0r0aQ/sr+JzP0XZ885vlHv/AFOn7U7Z&#xA;xaQV9WTpH9fcwzTfKXmjzrdJq3mSd7bTj8UFuBxYoe0SHZFP8zbn365tcusw6UcGIXLv/X3vP6fs&#xA;zU9oSGXUExx9B+odPed/e9M0jRdL0i1Frp1ulvCOoUfEx8WY7sfc5oM2eeWVyNl7DS6TFgjw448I&#xA;/HPvRuVOQ7FXYq7FXYq7FXYq7FXYq7FXiv5w2err5hjvLpFFjJGIrKRCSCE+JgwP2W5PnVdizh4X&#xA;CPq6vnntRiyjOJyHoIqPw/Tuzr8q3vR5VjtbmIRi1kdIn5Bi6sxk3UbrTn3zUdrCPjWDzH7HpfZw&#xA;z/LCMhXCTXn1+HNmGax3zsVdirsVdirsVdiqye3guIXguI1mhkHF43AZWHgQdjkoyMTY2LGcIzBj&#xA;IWC858w/lbPa3H6V8pTva3cZ5C05ld+/pOTt/qtt79s3em7WEhwZhY7/ANbyeu9nZQl4ulPDIfw3&#xA;9x/QVbyp+Zxa4/RHmdPqWoxn0/rLjgrN4SKfsN79PlkdX2Vtx4fVHu/V3tnZvtDcvC1I4Mg2vl8+&#xA;77vc9DBBAINQdwRmkeqdirsVdirsVdirCfP3n8aLTS9MX19ZmAAAHIRc/smn7Tn9lfv99t2f2d4v&#xA;rntAfb+x53trtv8AL/use+U/Z+3uCD8lflw0Uo1rzJW61SVvUSCU8wjHflITXk/4D59LNd2nY8PF&#xA;tD8cvJx+yewaPjaj1ZDvR3rzPefuehZpXqnYq7FXYq7FXYq7FXYq7FXYq7FVK7uYbW1mupiVhgRp&#xA;ZSASQqAs2w3OwyUImRAHMsMmQQiZHlEX8nin5ra/f3nmKbTDNy0209J4IlpxLPCrFz4n4yM6vsjT&#xA;xjiE69Rv73zv2k1s8moOO/3caoe+N39rJfyq82yTWl3a6nMC6z26W8nGskjzhk+PiKtT0x8R+k5g&#xA;dr6MCQMB0N+Vf28ncezfaZlGUch/ijXeTKxv8uZel5oXr3Yq7FXYq7FXYq7FXYq7FWP+bPJOkeZL&#xA;elwvo3qCkF4gHNfAMP2l9j9FMzdHrp4DtvHudV2n2Ti1cfVtPpL8cwwbRfM2veR9RTQ/MatNpZ2t&#xA;7kVbglacozSrIO69R+B22fS49XHxMW0+o/X5+bzmk7Qz9nZPB1G+Poe7zHePLmPseq21zb3VvHcW&#xA;8iywSqHjkQ1VlPQg5z0omJo7EPa48kZxEom4lUyLN2KuxVi/n7zlH5c0v9yQ2p3IK2sZ34+MjDwX&#xA;t4n6c2HZ2iOee/0Dn+p0vbXao0mPb+8ly/Wk/wCXPkiW3P8AiHWgZdVuqyQpLu0Yffm1f92N+AzK&#xA;7T14l+6x/QPt/Y4HYXZBj/hGbfLLcX0vr7z9j0DNK9S7FXYq7FXYq7FXYq7FXYq7FXYq7FUi89Tz&#xA;weUdUlglEMghIEhDGgYgN9gE1IJH69szNBEHPEEXu63tico6XIYmjw/jk+eZ52mkMjKqk9kUKPuF&#xA;BnaxjQp8qnPiNonS7+7tp0jgk9PnLE/IbMrxtVWUj4gRU9PHIZccZCz3Fu0+acCBE1uPmORfTWcC&#xA;+wuxV2KuxV2KuxV2KuxV2KuxVLtf0DTdc057G/j5Rtujj7cb9nQ9iMv0+onhlxRcTW6LHqcZhMbf&#xA;aPMPNNI1TWPy91v9EauTNoVwxaGcAlQCf7yPr/s0/wAzvs2KGtx8cNsg/FH9BeQ0uozdl5vCy74Z&#xA;cj+kfpH4PWoZopokmicSRSKGjdTUFSKgg5zcokGi9xGQkARuCuwMlG9vLeytJru5cRwQI0krnsqi&#xA;pycIGchEcy15csccDORqMRby3yjp9x50813PmTU0rp9o4FtC26ll3jj8KIPibxJ986DWZBpcIxQ+&#xA;o8/0n4vF9mYJdoaqWoyD0ROw+4fDmfN6xnOPcOxV2KuxV2KuxV2KuxV2KuxV2KuxV2KpN5x0q71b&#xA;y1fWFowW4mQenXoeLBuPf7XGmZWizRx5YylyDr+1dNLPp5wh9RH7XziQQaHYjO5fJkZo2mXeqapb&#xA;afaFVuLh+MbMSFB61JUE7U8Mqz5Y44GUuQcjSaeWbLHHD6pF9MxqUjVCxYqACx6mg65wRNl9giKF&#xA;LsCXYq7FXYq7FXYq7FXYq7FXYqlXmby5Y+YNKksLoUJ+KCcCrRyDow/iO4zJ0uplhnxR/tcHtDQQ&#xA;1WIwl8D3Fgn5f6/faDrEnk/XDw4uVspCfhDncKCf2JOq+/zzb9o6eOaAz4/j+O8dXmuxNbPTZjpM&#xA;3f6fx3Hp+16hnPvZvO/zg1iYWdnoFrVrjUXDSIvUorAIv+zk/Vm77GwjiOSXKP4+55T2o1R4I4I/&#xA;VM/Z0+Z+5mPlvRIdE0S106ICsKD1XH7ch3dvpb8M1mqznLkMz1+53+g0g0+GOMdBv5nqmeY7mOxV&#xA;2KuxV2KuxV2KuxV2KuxV2KuxV2KuxV88fmBAkHnLVY04hfVD0UUHxqG/jnbdnSvBE+T5V23AR1eQ&#xA;Dv8AvFsn/JO2ifV9QuGVTJDCqxk/aHNjUr/wO+a/t2REIjvLufZLGDlnI8xH73sGcy947FXYq7FX&#xA;Yq7FXYq7FXYq7FXYq7FWCfmr5W/SGljWbQFdQ00cmZdmaEbt07p9ofTm47I1fBPw5fTL7/2vNe0n&#xA;Z3i4/Gh9eP8A3P7OfzTryJ5k/T/l6G6kYG8h/c3YH+/FH2v9ktDmJ2hpfBykD6TuHYdja/8ANYBI&#xA;/WNpe/8Aa8z8zeZ7eH8zJNSuITd2+mSCKKANx+KFSOpB+zLVs3+l0pOk4AaM/wBP7Hj+0O0Ix7RO&#xA;SQ4o4zQHu/49uyeD87NFYj19PuYx39Mxvv8ASUzXy7CydJB3MPa3D/FCQ91H9Sc2P5p+TLohWvGt&#xA;nPRZ43X/AIZQy/jmLk7Jzx6X7i7DD7R6Of8AFw+8H+xkllqenXyepZXUVyn80Lq4+niTmDkxShtI&#xA;Ee922HUY8guEhL3G0Tlbc7FXYq7FXYq7FXYq7FXYq7FXYq7FXzx+YEhfznqrE1pNx2/yVC/wztuz&#xA;hWCPufKu25Xq8n9Zkv5Juw1zUE/Za2BPzEigfrzA7dH7uP8AW/Q7f2SP76Y/o/pexZzD3zsVdirs&#xA;VdirsVdirsVdirsVdirsVaZVZSrAMrCjKdwQcQUEW8r8og+WPzHvtBJ42V9X6uO3T1Ydz4KWT550&#xA;Ws/wjSxyfxR5/cf1vF9l/wCB9oTwfwT5ffH7LDzXULg3N/c3JNTPK8hP+uxP8c32OPDEDuDyGefH&#xA;OUu8kofJtTsVVILi4t5Vmt5XhmTdZI2KsD7EUORlESFEWGUJygbiaPkzXy9+bXmDT3WPUaalabA8&#xA;6LMB7OBv/sgfnmq1PY+Ke8PSfsei0PtNnxGsn7yP2/P9b1zQfMOla7Yi806X1E6SIdnjan2XXsfw&#xA;8M5rUaaeGXDIPdaLXYtTDjxmx9o96ZZQ5bsVdirsVdirsVdirsVdirsVfN/m+T1PNWrvxK/6XMOJ&#xA;6jjIR2+Wd1ohWGH9UPknakr1OQ/05feyX8mp2j81TRAErNaOD7FXRgfwpmB23G8IPdL9buPZWdak&#xA;jvgfvD2vOUfQ3Yq7FXYq7FXYq7FXYq7FXYq7FXYq7FXl/wCag/R3mny/rSfCwYK5HhbyK+/zEhzo&#xA;OyfXhyY/xuP2PG+0Y8LU4cw/HCQf0vKWUqxVhQg0IPiM6N4gimsVdirsVdirP/yk8zaZpOoXVlek&#xA;xHUTEsVwSOAaPlRW8OXPrmm7Y0s8kRKO/Dez0/sz2hjwZJQnt4lUem1/re0Zyr6E7FXYq7FXYq7F&#xA;XYq7FXYq7FXzb5s/5SnWf+Y65/5PNnd6P+5h/VH3PkfaX+M5f+GS/wB0WSfk6QPNzAmhNrKB7nkh&#xA;zA7a/uP84O29lj/hX+Yf0Pbs5N9GdirsVdirsVdirsVdirsVdirsVdirsVeY/ndvBo6Dd2efivc7&#xA;IP45v+wucz7v0vHe1304x5y/Q828xWZste1G0Ip6NzKi/wCqHPE/SM3umnx44y7wHkddi8PPOPdI&#xA;/el+XuK7FXYq7FWfflFoun6lqeoG+tYrqCKBQEmRXAZ3FCOXQ0U75pu2c8scI8JIN9HpvZjSY82S&#xA;fHESAj1F8z+x7SAAAB0HTOVfQ3Yq7FXYq7FXYq7FXYq7FXYq+Zdcd31rUHcUdrmZmHuZCTnfYBWO&#xA;PuD49rCTmmT/ADj97JfylZh5ztwBUNFMGPgOFa/eMwO2B+4PvDt/Zk/4YPcfue65yD6U7FXYq7FX&#xA;Yq7FXYq7FXYq7FXYq7FXYq8v/Mo/pHzv5e0hfiAKM48BNKA3/Cx1zoOy/Rp8k/xsP2vGdv8A73WY&#xA;cXu+2X6gkP5v6QbPzQL1VpFqESyV7epGAjj7gp+nMzsbNxYeHrEus9qNN4ep4+kxfxGx/QwbNu84&#xA;7FXYq7FWYflt5uOhao1s1t68OpyQxSMppIpBKqVrsf7zcZrO09H40LujG3fdgdp/lsvDw2MhA8/L&#xA;73u+ce+luxV2KuxV2KuxV2KuxV2KuxV8za64fW9QdejXMzCvgZCc73TiscfcPufHtYbzTP8ASl97&#xA;Ivyndl862oHR45g3y9Mn+GYPbA/wc+8O29mjWsj7pfc93zkH0t2KuxV2KuxV2KuxV2KuxV2KuxV2&#xA;KuxV5Z5Vb/Ef5n3+tD4rOwDeg3Vdh6MX/BLyfOh1Y8DSRx/xS/tP6ni+zj+b7Snm/hhy/wByP0lk&#xA;35m+XjrHlqR4U5XlgfrEIHUqB+8UfNd/mBmB2VqfCy7/AEy2/U7f2g0Pj6ckfXDcfpHy+54LnYvm&#xA;bsVdirsVTryVb/WPNukR0rS6icj2jbmf+I5ia6VYZn+iXYdkw4tVjH9MfZu+jc4d9ZdirsVdirsV&#xA;dirsVdirsVQ+orI2n3SxsFkaKQIzCoBKmhI75PERxC+9qzgnHIDnRfMGegPjae+RRIfOGkiNgrfW&#xA;EJJFfhG7D6RtmH2hXgTvudl2OD+bx1/OD6KziH1d2KuxV2KuxV2KuxV2KuxV2KuxV2KsT/MrzKui&#xA;+XZY42pfX4aC3AO4BH7x/wDYqfvIzZdl6XxcoJ+mO5dH2/r/AMvpyB9c9h+k/D76a/LLy8dH8tRv&#xA;MnG8vz9YmB6hSP3an5Lv8yce1dT4uXb6Y7frR7P6HwNOCfrnuf0D5fey3Na714R+ZXlFtD1g3Nsl&#xA;NMvmLw0G0b9Wj9vFfb5Z2HZes8WFH64/i3zTt/sz8tl4oj93Pl5HqP1eTD82boXYq7FURp+oXmnX&#xA;kd5ZyGG5hJMcgAJBIKnZgR0OQyY4ziYyFgtuDPPFMTgakHs35d+fIdYtk0+9empxjdnYlpiSzFlA&#xA;FAAB47Zy3aXZ5xHij9H3PoHYXbIzxGOZ/eD/AGXNnOah6R2KuxV2KuxV2KuxV2KuIDAgioOxB6Ux&#xA;Uh8ya3DFDrN/DEoSKK4lSNB0Cq5AH3Z32CROOJPcHx7VxEc0wOQkfvZD+VdrHcedLMuAwhWSUA16&#xA;qhAP0E5hdrTIwHzp2ns5jEtZG+ln7HvWcc+muxV2KuxV2KuxV2KuxV2KuxV2KqV5d21nay3VzIIr&#xA;eFS8sjdAo3OShAyIA5lry5Y44mUjUQ8p0aC58/ecn1a7jK6Jp5AjhboQpqkfgSx+J/u8M6LPIaPB&#xA;wR/vJfi/1PFaWEu09Wcsx+5h0+4fHmfl3PW85t7l2KoDXNEsda0ybT71eUMo2YfaRh9l1PiMu0+e&#xA;WKYlHmHF1mkhqMZxz5H7PN89+ZPLuoaBqcljeL03hmA+GROzL/Eds7XTamOaHFH+x8s1+hyabIYT&#xA;+B7x3pXmQ4bsVdirJvy1hWbztpsbFgpMxqpKnaCQ9RQ9s1/ahrTyPu+8O47AiJayAPn/ALkvoECg&#xA;pnGPqLsVdirsVdirsVdirsVdir5n8w/8d/Uv+Yqf/k42d7pv7uP9Ufc+P67+/n/Xl97Jfyi/5TKP&#xA;/jBL+oZgds/3B94dx7Mf42P6pe55yL6Q7FUr8weZdJ0C1S51KQokr8I1RSzM1K7AeAzI02lnmNQc&#xA;LXdoYtLESyHmlFr+aPkqcgG/MLHoJYpF/EKV/HMmfZWoH8N/EODj9otHL+OveD+pkFnrGl30LS2V&#xA;3FdIo5N6Lq5A9wpOYc8M4GpAj3u0xarFkFwkJe42+ftd84a5q+oy3ct3LGjMfSgjdlSNOyhQadOp&#xA;752en0WPHERAD5drO1M2fIZmRHcAdgk8k00lPUdnp05En9eZQiBydfKZPMrrW7urSdbi1me3nSvC&#xA;WJijiooaMpBGxwTgJCpCwyx5ZQlxRJjLvGxZp5O/MzUtOupDrV5cXtisLCOE0kkMpdSDzah6V+03&#xA;T6M1Wt7LhMfuwIyv7HoeyvaDJikfGlKcOHlzN2Ov6yx/WvNmuarqMt5NdypzJEcUbsiIlfhVVB7Z&#xA;m4NHjxxEQA6rV9p5s+QzMj7u4ID9Lap/y2T/APIx/wCuXeDDuHycb8zl/nS+ZTLQdM1/zLqCabBP&#xA;LIjENO8js0caA7u1T27eJyjUZceCPGQHL0Wnz6vIMcSSOt3QHe980PRLHRdMh0+yXjDEN2P2nY/a&#xA;dj4nON1GeWWZlLmX07R6SGnxjHDkPt80flLlOxV2KpR5n8r6Z5i082l6tHWrW9wv243IpUeI8R3z&#xA;J0urnglxR+I73A7Q7Ox6rHwT+B6h4L5k8s6p5fvzaX0dAamCda+nIo7qf1jqM7HS6qGaPFH+x8y1&#xA;/Z+XSz4Zj3HoUpzJcJ2Ksx/KZC3nS3NfsRTMf+AI/jmr7YP7g+8O/wDZoXrI+4/cmX5ueYdSfWJd&#xA;DEo/R8axSmLiAfU41+1Sv7WUdjaaAgMlerdy/afXZDlOG/QKNebzzN28q7FVexvruwvIry0kMVzA&#xA;weOQUNCPY7ZDJjjOJjLcFsw5pYpicDUg+i/K2vRa7odtqSAK0q0mQfsyLs679q9PbOI1enOHIYfi&#xA;n1fs7WDU4Y5B15+/qmuYznOxV2KsE8jeeLrVp9ee7Vhb2hNzbR7FkiPKsZbYbcRSvv2zca/QDGIc&#xA;PM7H397zPY/bEs5zGf0x9Q8hvt9jxvUboXmoXV2F4C4lkl4dac2LUr9OdRihwxEe4PA58niZJS/n&#xA;En5p9+XOqpp3m6xkdOaXDfVjuBx9b4Q2/geuYfaeLjwSHdv8nZdhakYtVAkfV6fns9TuvNd1H+Yt&#xA;poNP9Ekt2rxZd5GX1FZgRX4RGRSveuc7DSA6U5Ot/se1ydpSHaEcH8Jj9vP9H2pf5+/MS48v6tBZ&#xA;WUSzSLC8k6uaLycUirTei0JIqK+OX9n9mjNAyka3/tcXtrtyWlyiEBZok/Hl+tinm/zTP5l8lWt7&#xA;cW6QTQ6gYD6ZJDUh51AO6/a8Tmx0WkGDUGINgwv7XSdqdoy1ejjOQESMlbf1bYDm5eYXwzzQSrLB&#xA;I0UqGqSISrA+II3wSiCKPJlCZibiaKzCxdirsVdirsVTby35Z1TzBfi0sY6gUM87V9ONT3Y/qHU5&#xA;jarVQwx4pf2uboOz8uqnwwHvPQPevLHlfTPLuni0slq7Ua4uG+3I4FKnwHgO2cdqtXPPLil8B3Pp&#xA;vZ/Z2PS4+CHxPUpvmM57sVdirsVdiqC1fRtN1eyey1CFZ4H3odip7MpG4I8RluHPPFLiiaLj6rS4&#xA;88ODILi8X84/lpquhs91Zhr3SxU+qorJGP8AixR2/wAobfLOq0XakMu0vTP7/c+e9qdgZdNcoevH&#xA;39R7/wBf3MNzaOgdirsVdirsVdir3f8AKdVHkq1IG7STFvn6hH8M4/tc/wCEH3D7n0v2aH+Bx98v&#xA;vZhmsd87FUNqV/Bp+n3N9PUw2sbSyBd2IQVoOm+WYsZnIRHMlp1GaOLHKcuURfyfNkOqXkFhc6fF&#xA;IRa3TI0se25jNVPj+Od1LFEyEjzD5HDUTjCWMH0yq/ghMtaHYqyPybrhtvOGnahqFyQiERSTOa0Q&#xA;xmJanwApmDrcHFglGI/F27bsrWcGrhkyS25X5VSXeZb+bUNf1C7mYM8s77jpxU8VA9goAy/S4xDH&#xA;GI7nE1+Y5c85nmZFAetN6Po829Hlz9Kp48qU5celad8u4Rd9XF4zVXsswodirsVdirsVdirMvJ35&#xA;a6rrjJdXYay0s0PqsKSSD/itT2/yjt881et7Uhi2j6p/d73f9ldgZdTUp+jH39T7v1/e9o0jRtN0&#xA;iySy0+FYIE3oNyx7sxO5J8TnK5s88suKRsvoWl0uPBDgxioo3KnIdirsVdirsVdirsVdirCPNP5V&#xA;6Lqxe5sKadfNUkoP3Ln/ACkHSviv3HNtpO1smPaXqj9rznaPs5hz3KHon9h+H6nlHmDyhr+guRqF&#xA;sRDWi3Ufxwt/sx0+TUOdHp9bjzfSd+7q8Trey8+mP7yO3eOXz/Wk2ZTr3Yq7FXYq99/K+Ph5H03a&#xA;hb1mPvWd6H7s43tU3qJfD7g+n+zsa0UP87/dFlWa53TsVYD+a/mfUdK09dOt4V9LVIpI2uialQCB&#xA;IoWlPiVuubnsjSxyS4id4Hk8x7S9oZMOPw4jbICL+8fJ4tnVPnrsVdiraOyOrqaMpBU+BGAi1Bo2&#xA;G5ZXlleWQ1kkYs58SxqcQKFBMpGRJPMrcKHYq7FXYq7FU58v+UNf15wNPtiYa0a6k+CFf9mevyWp&#xA;zF1Gtx4fqO/d1dhouy8+pP7uO3eeXz/U9X8rflXouklLm/pqN8tCC4/cof8AJQ9aeLfcM5zV9rZM&#xA;m0fTH7XtuzvZzDgqU/XP7B8P1s3zUvRuxV2KuxV2KuxV2KuxV2KuxV2KtOiSIUdQ6MKMrCoI9wcI&#xA;NckEAiiw3Xvyp8s6kWltVOm3J35Qf3ZPvEdv+Bpm00/a+XHsfUPP9boNZ7N6bNvH93Ly5fL9VPP9&#xA;Z/KbzTYFntUTUIB0aE0envG1D/wNc3ODtjDPn6T5/reW1Xs1qcW8QJjy5/L9VsQubS6tZTDdQvBK&#xA;OscqlGH0MAc2cZiQsGw6LJilA1IGJ89lLJMH0J+XYVfJelhWDUjJJHYl2NPornFdpf38ve+p9hD/&#xA;AAPH7v0pzqt3LZ6Zd3cUfqyW8TyrHv8AEUUtTb5Zi4YCUxE7WXYanIceOUwLMQT8kPH5g0w3llYS&#xA;TqL+/h9e3hQOysnEsSsgXjT4T1OTOmnwykB6Ymi0x12PjjjJ9c42Bv8AfyYf+dRjHl2zBQFzdji/&#xA;dR6b1+/Nn2Hfin+r+kOh9rCPy8dt+P8AQXjWdS8A7FXYq7FXYq7FXYqq21pdXUohtYXnlPSOJS7H&#xA;6FBORlMRFk0GePFKZqIMj5bsv0b8pvNN+Ve6RNPgPVpjV6e0a1P/AAVM1mftjDDl6j5frd7pfZrU&#xA;5d5AQHnz+X66egaD+VPlnTSst0p1K5G/Kf8AuwfaIbf8FXNNqO18uTYekeX63qdH7N6bDvL95Lz5&#xA;fL9dsyREjQIihEUUVVFAB7AZqyb5u/AAFBvAl2KuxV2KuxV2KuxV2KuxV2KuxV2KuxV2KuxVQvLC&#xA;xvYvSvLeO5i/klRXX7mBycMkom4khry4YZBUwJDzFsY1H8q/Jt4Sy2z2jnq1vIV/4VuaD7s2GPtb&#xA;PHrxe902f2c0mTlEx/qn9dhIJfybuLaQy6TrUkDdg6FT/wAHGw/4jmYO2xIVOF/jzdXL2VlA3iyk&#xA;fjvB/Qs/w3+b2n7WurLdqOnKX1NvcXCYfzWhnzhXw/Uj8h2ri+nJxfG/90GP/wCH/wAzbDVI9Sjs&#xA;ZY7mEloxAYmjHL7SiONigVu6gUzN/M6ScDAyFHvv7y6r8j2jiyDIIESHdVfIGt+5V826l5/1+xit&#xA;NR0GWJYJPWEkFtOB9krQ1LjvkdHi02GRlHIDe25DZ2nqNdqoCOTCRwm9oy/axL/D2v8A/Vtuv+RE&#xA;n/NObL8zj/nR+YdF+Rz/AMyf+lLv8Pa//wBW26/5ESf804/mcf8AOj8wv5HP/Mn/AKUq0XlLzTLT&#xA;hpF4QRUEwSAfeVpkDrMI/jj8w2R7M1J5Y5/6Uo6D8uvOs/2NKkH/ABkaOP8A4my5VLtLTj+Ifa5M&#xA;OwtZLljPxofeU1tfye83TEeqba2Hf1JCx/5Jq+Y0+2sA5Wfg5uP2W1UufDH3n9QKeWX5ILUG+1Qk&#xA;d0gip/w7Mf8AiOYmTt3+bH5l2WH2R/n5PkP0n9TJdO/KvybZkM1s9246NcSFv+FXgh+7MHJ2tnl1&#xA;4fc7fB7OaTHziZf1j+qgyezsLGyi9Kzt47aL+SJFRfuUDNfPJKRuRJdziwwxioARHkKV8g2OxV2K&#xA;uxV2KuxV2KuxV2Kv/9k=</xmpGImg:image>
               </rdf:li>
            </rdf:Alt>
         </xmp:Thumbnails>
      </rdf:Description>
      <rdf:Description rdf:about=""
            xmlns:xmpTPg="http://ns.adobe.com/xap/1.0/t/pg/"
            xmlns:stDim="http://ns.adobe.com/xap/1.0/sType/Dimensions#"
            xmlns:xmpG="http://ns.adobe.com/xap/1.0/g/">
         <xmpTPg:NPages>1</xmpTPg:NPages>
         <xmpTPg:HasVisibleTransparency>False</xmpTPg:HasVisibleTransparency>
         <xmpTPg:HasVisibleOverprint>False</xmpTPg:HasVisibleOverprint>
         <xmpTPg:MaxPageSize rdf:parseType="Resource">
            <stDim:w>564.444444</stDim:w>
            <stDim:h>275.166667</stDim:h>
            <stDim:unit>Millimeters</stDim:unit>
         </xmpTPg:MaxPageSize>
         <xmpTPg:PlateNames>
            <rdf:Seq>
               <rdf:li>Cyan</rdf:li>
               <rdf:li>Magenta</rdf:li>
            </rdf:Seq>
         </xmpTPg:PlateNames>
         <xmpTPg:SwatchGroups>
            <rdf:Seq>
               <rdf:li rdf:parseType="Resource">
                  <xmpG:groupName>Grupo de muestras por defecto</xmpG:groupName>
                  <xmpG:groupType>0</xmpG:groupType>
               </rdf:li>
            </rdf:Seq>
         </xmpTPg:SwatchGroups>
      </rdf:Description>
      <rdf:Description rdf:about=""
            xmlns:dc="http://purl.org/dc/elements/1.1/">
         <dc:format>image/svg+xml</dc:format>
         <dc:title>
            <rdf:Alt>
               <rdf:li xml:lang="x-default">sky-line_2</rdf:li>
            </rdf:Alt>
         </dc:title>
      </rdf:Description>
      <rdf:Description rdf:about=""
            xmlns:xmpMM="http://ns.adobe.com/xap/1.0/mm/"
            xmlns:stRef="http://ns.adobe.com/xap/1.0/sType/ResourceRef#"
            xmlns:stEvt="http://ns.adobe.com/xap/1.0/sType/ResourceEvent#">
         <xmpMM:DocumentID>xmp.did:0580117407206811822AFF4BBFC6E6EA</xmpMM:DocumentID>
         <xmpMM:InstanceID>xmp.iid:0580117407206811822AFF4BBFC6E6EA</xmpMM:InstanceID>
         <xmpMM:OriginalDocumentID>xmp.did:0180117407206811822AFF4BBFC6E6EA</xmpMM:OriginalDocumentID>
         <xmpMM:RenditionClass>proof:pdf</xmpMM:RenditionClass>
         <xmpMM:DerivedFrom rdf:parseType="Resource">
            <stRef:instanceID>uuid:114f3a7c-7f6a-894e-94e6-c894a7fe32a5</stRef:instanceID>
            <stRef:documentID>xmp.did:0280117407206811822AFF4BBFC6E6EA</stRef:documentID>
            <stRef:originalDocumentID>xmp.did:0180117407206811822AFF4BBFC6E6EA</stRef:originalDocumentID>
            <stRef:renditionClass>proof:pdf</stRef:renditionClass>
         </xmpMM:DerivedFrom>
         <xmpMM:History>
            <rdf:Seq>
               <rdf:li rdf:parseType="Resource">
                  <stEvt:action>saved</stEvt:action>
                  <stEvt:instanceID>xmp.iid:0180117407206811822AFF4BBFC6E6EA</stEvt:instanceID>
                  <stEvt:when>2015-05-05T16:23:19-05:00</stEvt:when>
                  <stEvt:softwareAgent>Adobe Illustrator CS6 (Macintosh)</stEvt:softwareAgent>
                  <stEvt:changed>/</stEvt:changed>
               </rdf:li>
               <rdf:li rdf:parseType="Resource">
                  <stEvt:action>saved</stEvt:action>
                  <stEvt:instanceID>xmp.iid:0580117407206811822AFF4BBFC6E6EA</stEvt:instanceID>
                  <stEvt:when>2015-05-05T16:34:13-05:00</stEvt:when>
                  <stEvt:softwareAgent>Adobe Illustrator CS6 (Macintosh)</stEvt:softwareAgent>
                  <stEvt:changed>/</stEvt:changed>
               </rdf:li>
            </rdf:Seq>
         </xmpMM:History>
      </rdf:Description>
      <rdf:Description rdf:about=""
            xmlns:pdf="http://ns.adobe.com/pdf/1.3/">
         <pdf:Producer>Adobe PDF library 10.01</pdf:Producer>
      </rdf:Description>
   </rdf:RDF>
</x:xmpmeta>
                                                                                                    
                                                                                                    
                                                                                                    
                                                                                                    
                                                                                                    
                                                                                                    
                                                                                                    
                                                                                                    
                                                                                                    
                                                                                                    
                                                                                                    
                                                                                                    
                                                                                                    
                                                                                                    
                                                                                                    
                                                                                                    
                                                                                                    
                                                                                                    
                                                                                                    
                                                                                                    
                           
<?xpacket end="w"?>
	</metadata>
<g id="df_x5F_skyline_xA0_Image_1_" xmlns:svg="http://www.w3.org/2000/svg" xmlns:dc="http://purl.org/dc/elements/1.1/" xmlns:cc="http://web.resource.org/cc/" xmlns:rdf="http://www.w3.org/1999/02/22-rdf-syntax-ns#">
</g>
<g id="Capa_3">
</g>
<g id="Capa_2">
	<g>
		<defs>
			<path id="SVGID_1_" d="M1342.387,384.75c0,212.768-262.361,385.25-586,385.25s-586-172.482-586-385.25S432.749,10,756.387,10
				C1080.027,10,1342.387,220.662,1342.387,384.75z"/>
		</defs>
		<clipPath id="SVGID_2_">
			<use xlink:href="#SVGID_1_"  overflow="visible"/>
		</clipPath>
		<g clip-path="url(#SVGID_2_)">
			<path display="none" fill="#FFFFFF" d="M822.887,446.5c-0.275-0.276-1.518,0.482-1,1
				C822.164,447.776,823.404,447.018,822.887,446.5z M753.887,453.5c-0.277-0.276-1.518,0.482-1,1
				C753.165,454.776,754.405,454.018,753.887,453.5z"/>
			<path fill="#00ADEF" d="M793.887,154.5C792.434,155.115,793.989,155.708,793.887,154.5c1.969,2.366,4.959,3.708,8,5
				c2.305,0.671,4.697,1.18,7,4c-1.631,3.422,0.119,3.005,2,5c1.01,5.992,0.236,13.764,2,19c1.951-2.05,6.715-1.286,9-3
				c1.871-4.538-3.973-1.361-3-5c2.51-1.551,3.35-4.057,7-2c0.252,2.917-1.883,3.45-3,5c3.293-0.486,4.201,5.766,1,6
				c-0.281-1.615,0.945-1.723,1-3c-2.461-1.555-2.939,3.396-1,3c0,0.667,0,1.333,0,2c-1.758-1.438-2.279-0.917-2,2
				c-1.172-0.162-0.844-1.823-1-3c-2.555,0.111-1.984,3.35-2,6c-2.168,0.168-0.453-3.547-1-5c-0.961-3.629,4.494-0.84,4-4
				c-3.293,0.706-6.393,1.607-10,2c0,3.234-2.869,6.29-2,13c3.598-0.07,3.16-4.173,3-8c1.676-2.88,0.797,5.109,1,7
				c3.803,0.802,1.271-4.729,2-7c2.256,0.745,0.391,5.609,1,8c-4.051,1.018-4.604-0.671-7,2c1.6,2.805,4.502-1.404,8,0
				c2.449-1.329-1.1-3.721,1-4c3.15,0.482,0.75-4.584,3-5c0,1,0,2,0,3c1.744,0.296,3.508-3.879,0-3c0.014-1.986,2.729-1.271,2-4
				c4.357-2.912-1.193,2.992,3,2c5.146,2.502-1.578,12.457,4,13c-2.631,2.369-5.537,4.462-6,9c2.555,1.078,3.5-4.305,5-1
				c-1.572,3.093-2.816,7.966-2,12c0.67,3.312,3.631,4.641,4,7c-2.939,3.621-4.955,11.107-2,15c-2,0-4,0-6,0
				c0.535,3.868-1.785,4.882-1,9c-2.152,0.848-3.537,2.463-3,6c-2.545-0.516-3.877-1.704-4,2c-3.141,6.59,0.371,16.293-4,23
				c3.838,18.9,2.229,40.109,4,62c0.299,3.686,1.725,7.562,2,11c0.551,6.861-0.984,13.038-1,20c-0.031,14.818,2.084,29.938,1,45
				c0.014,2.807,2.729-2.381,2,2c0,4.333,0,8.667,0,13c0.299,1.966-1.35,1.983-2,3c1.561,12.773,1.646,27.021,2,41
				c-0.318,2.652,5.602-0.936,4,3c0.049,3.381-4.816,1.849-5,5c2.934-0.267,3.715-1.38,5,0c1.363,2.638,1.182,6.818,2,10
				c-0.314,2.352-4.74,0.594-4,4c1.838,6.569,1.121,14.917,1,21c0.297,2.63-3.879,0.787-3,4c-2.174,25.158-0.447,54.218-1,81
				c2.889,2.444,5.254,5.413,7,9c-0.057,3.277-2.844,3.822-2,8c2.916,3.085,5.186,6.814,12,6c0,2.333,0,4.667,0,7
				c5.539-1.543,6.188-4.578,5-11c0.934,0.611,3.688,2.327,3-1c1.141-3.379-3.129-12.481-1-17c1.162,0.839,2.682,1.319,5,1
				c-1.389-3.062-0.615-7.248,1-10c3.15-1.121,2.264-0.09,6,0c-0.289,4.834-2.477,5.548-1,10c0.629,2.039,5.053,0.28,4,4
				c-0.043,1.377,0.471,2.195,1,3c0.076,1.742-0.223,3.109-1,4c1.984,2.306-0.25,1.111-1,3c1.178,0.156,2.84-0.172,3,1
				c-4.918,1.493-2.059,9.854-1,14c-0.707,7.374,0.938,12.396,2,18c0.09,1.388,7.193,0.612,4,2c-1.496,0.171-3.689-0.357-4,1
				c3.045,0.289,6.826-0.159,7,3c1.203,4.869-4.623,2.71-3,8c1.596,0.738-0.229,4.895,3,4c2.059,0.274,0.941,3.726,3,4
				c0.877-6.883-0.52-19.986,0-32c3.428-7.239,5.664-15.669,10-22c0.004-1.786-2.693-5.817,0-7c0.156,1.177-0.172,2.839,1,3
				c3.365-7.302,6.5-14.834,10-22c0.609,2.391-1.256,7.255,1,8c0.783,2.468-3.633,6.922,1,7c3.953-0.318-0.74-3.095,2-4
				c1.891-0.224,2.207,1.127,4,1c0.547-1.453-1.168-5.169,1-5c7.826,0.84,14.752,2.582,19,7c-2.16,4.84-0.459,13.54-1,20
				c3,0,6,0,9,0c0.66-16.659-0.902-31.097-1-47c2.398-1.935,3.055-5.612,7-6c31.818,1.517,59.252,7.416,83,17
				c0.773-6.107-1.309-9.356-1-15c0.816-4.519,2.893-7.774,4-12c5.41-3.256,7.762-9.572,14-12c27.184-1.484,53.135-4.199,83-3
				c0.229,1.771-1.008,5.008,2,4c5,0,10,0,15,0c3.16-0.493,0.371,4.962,4,4c4.334,0,8.666,0,13,0c0,7,1.695,12.305,1,20
				c5.377-1.624,5.906-8.095,15-6c-0.928-12.262,9.693-12.975,14-20c129.338,0.666,261.332-1.333,389,1
				c3.506,23.495,9.463,44.538,13,68c2.391,0.609,7.256-1.255,8,1c2.371,10.964,5.695,20.973,5,35c2.668,0,5.334,0,8,0
				c0,50,0,100,0,150c-533.355,0-1066.612,0-1599.999,0c0-164.667,0-329.333,0-494c50.056,0.389,99.171-0.162,147-2
				c2.409,0.409,2.174-1.827,5-1c15.333,0,30.667,0,46,0c2.409-0.409,2.174,1.827,5,1c2.667,0,5.333,0,8,0
				c30.792,3.208,58.754,9.246,85,17c12.112,4.889,25.08,8.92,36,15c5.792,2.874,11.523,5.811,16,10c5.892,2.775,10.367,6.966,14,12
				c-0.003,6.33-0.65,12.018-2,17c4.839,3.161,9.031,6.971,13,11c2.418,1.582,3.675,4.325,6,6c-0.168,2.9,5.772,4.805,3,7
				c-6.152,0.486-9.554-1.779-16-1c-0.955,16.379-3.786,30.881-5,47c6.059,3.274,12.559,6.108,17,11c-2.72,18.947-3.888,39.445-7,58
				c5.996-1.005,16.583,2.583,18-3c1.131,3.14-0.288,2.642,1,5c-3.183-0.2-9.327-2.606-12,0c-0.947,3.613,3.938,1.395,6,2
				c2.365,3.302,5.464,5.869,8,9c3.36-1.35,5.29,0.539,7-1c1.122,0.211,1.557,1.109,2,2c-2,0-4,0-6,0c-1.345,2.391,5,5.632,6,9
				c2.072-0.595,6.569,1.236,7-1c1.122,0.211,1.557,1.109,2,2c-3.736,0.09-2.85,1.121-6,0c-0.178,3.511,3.378,3.289,4,6
				c1.264,1.498,5.303,1.789,3,4c2.333,0,4.667,0,7,0c0-0.333,0-0.667,0-1c0.779,0.221,1.163,0.838,1,2c-3.774-0.226-9.05,1.05-10-2
				c-0.438,23.896-2.723,45.944-3,70c7.667,0,15.333,0,23,0c0.61-8.391,1.429-16.571,1-26c4.333,0,8.667,0,13,0
				c0.633-3.367-1.289-9.288,1-11c28.829,0,60.067,0,88,0c9.578,0,19.68-1.464,28,2c-0.09,1.576-2.551,0.782-2,3
				c4.275-0.275,5.097,2.902,7,5c2.184,4.149,5.323,7.344,7,12c-1.135,0.19-0.555,1.003,0,1c1.117,1.55,3.25,2.083,3,5
				c1.606,2.27,1.064,4.146,3,4c-0.645,4.355,1.304,11.305-1,14c0-3.333,0-6.667,0-10c-3.098,1.481-2.223,8.229,0,10
				c-0.217,34.682-3.629,72.155-4,108c2.391,0.609,7.255-1.255,8,1c0,3.667,0,7.333,0,11c13.641,0.026,25.648,1.685,40,1
				c2.611,3.39,6.258,5.743,8,10c0.824,2.51-1.943,8.61,2,8c6.465,2.465,2.344-5.656,5-7c5.354-0.646,7.832-4.17,14-4
				c0.367-3.635,4.287-3.713,5-7c-0.502-4.165-3.498-5.835-4-10c-3.934-2.065-7.756-4.244-10-8c-1.514-2.485-1.396-6.604-4-8
				c2.168,0.169,0.453-3.547,1-5c-1.494-1.507-4.482-1.518-4-5c2.359,0.309,1.861,3.473,5,3c-1.631-3.153-3.52-6.399,1-8
				c-1.191,2.638,4.809,2.579,0,3c-0.74,3.406,3.686,1.648,4,4c-2.279-0.279-3.758,0.241-4,2c1.795-0.129,2.34,0.993,2,3
				c-0.838,1.16-1.318,2.682-1,5c2.5,1.833,4.266,4.402,6,7c3.797,1.203,7.873,2.128,12,3c-0.27-5.062-3.219-7.447-2-14
				c5.543-0.543,9.82,0.182,11,4c-1.555,0.261-0.693,2.193,0,3c-1.207,1.459-4.371,0.962-3,5c4.463,2.871,9.064,5.602,12,10
				c-1.824,2.317,2.785,4.259,0,8c2.504,1.275,3.131-0.509,4,1c0.768,5.67,0.113,7.753,1,12c0.924,3.742,5.699,3.636,5,9
				c0.752,4.085-2.131,4.535-4,6c3.172,1.161,2.102,6.565,5,8c0.564-5.102,3.918-7.417,9-8c0.744-4.076-3.223-3.443-2-8
				c4.045,0.045,4.5-3.501,8-4c-1.588-3.412-2.064-7.936-3-12c2.418-12.877,0.035-27.642,1-40c0.314-1.352,1.424-1.91,1-4
				c-1.236-3.235,3.236-0.765,2-4c-3.283-11.051-7.568-21.099-10-33c3.334,0,6.668,0,10,0c0.096-1.571-0.133-3.468,2-3
				c0.6-5.067,5.758-5.575,6-11c0.051-3.718-3.373-3.96-2-9c2.582-1.718,3.414-1.239,1-4c4.514,0.688,2.293-1.678,2-4
				c1.771-0.229,5.008,1.008,4-2c-2.145-11.756,0.67-24.412-1-35c1.809-3.858,4.354-6.98,7-10c-0.221-1.873-2.578-6.627,0-8
				c3.629-1.217,8.283,1.61,5,4c2.057,1.944,3.559,4.442,5,7c0.703,5.298,2.777,9.225,2,16c0.275,3.942-4.275,3.058-4,7
				c3.779,1.069-0.035,5.931,2,7c3.922-5.309,4.68,3.78,9,4c0-4,0-8,0-12c3.459,0.792,4.223-1.111,6-2c0.316-2.352,4.74-0.594,4-4
				c0.646-3.979-2.646-4.021-2-8c1.762-0.905,1.652-3.682,4-4c-1.062-3.729,3.75-1.583,3-5c0-27.333,0-54.667,0-82
				c-1.977-1.356-4.652-2.014-5-5c0.09-7.169-0.174-14.464,1-18c0.822-3.821-4.822-1.179-4-5c0.594-4.072,0.457-8.877,3-11
				c1.664-3.141-3.719-4.086-1-5c1.486-2.785,4.469,2.113,4-2c1.893-12.107,0.355-27.645,2-40c0.299-1.966-1.35-1.983-2-3
				c2.959-1.752-0.578-5.328,0-8c3.596-22.634,2.848-49.486,2-74c0.09-1.576,2.551-0.783,2-3c-0.01-24.346,1.801-46.866,3-70
				c0.164-3.164-2.658-3.342-2-7c-0.152-6.377,1.334-8.492,0-14c-0.947-2.052-3.229-2.771-5-4c1.146-3.146-1.57-2.43-2-4
				c-1.182-2.482-1.447-5.886-2-9c-1.496-2.775-4.09,1.736-5-1c2.348-2.953-2.111-6.111-3-11c3.039-5.025,2.277-8.184,3-16
				c3.127-1.617-3.975-1.243-2-5c3.191-0.593,3.094,1.877,5,0c1.211-6.211-4.789-5.21-5-10c1.129-1.204,2.854-1.812,2-5
				c0.898-2.768-2.053-9.389,2-9c0,0.667,0,1.333,0,2c-1.135,0.189-0.555,1.003,0,1c0.615,1.454,1.209-0.102,0,0
				c0-0.333,0-0.667,0-1c0.668,0,1.334,0,2,0c0.191,1.135,1.004,0.555,1,0c2.143,2.191,3.494,5.172,6,7c2.168,0.168,0.453-3.547,1-5
				c2.246,0.42,0.027,5.307,2,6c2.256-0.745,0.391-5.609,1-8c2.27,1.064,0.381,6.286,1,9c-3.055,0.723-3.643-1.021-6-1
				c0.078,3.256,4.533,2.135,7,3c1.906-1.518-0.074-8.652,1-11c-2.6-2.632-6.082,1.413-7-2c-2.006-0.34-3.129,0.205-3,2
				c-1.93-0.404-0.086-4.58-4-3c1.037-1.383,4.057-4.757-1-4c2.281-4.375-3.559-7.702,3-9c0.703,0.982,5.549,5.007,1,5
				c0.043-1.71-0.742-2.59-2-3c-1.301,1.332-0.615,3.018,1,4c-0.188,5.188,8.785,1.216,9,6c-1.352-0.314-1.91-1.423-4-1
				c-0.189-1.135-1.002-0.555-1,0c-0.807-0.693-2.738-1.557-3,0c0.295,2.333,2.707,2.333,3,0c0.334,0,0.668,0,1,0
				c0.225,0.775,0.027,1.973,1,2c0.055-1.052,1.283-0.787,1,1c1.123,0.102,1.557-1.454,2,0c3.357-0.914,0.496-1.859,1-5
				c0-5.667,0-11.333,0-17c1.697-0.97,2.57-2.764,2-6c3.67,0.004,3.832-3.501,6-5c4.223,0.891,5.646-1.02,7-3
				c1.857-1.768-0.434-2.919-1-5c1.578-4.578-4.15-1.85-4-5c-0.838-1.161-1.318-2.682-1-5c-4.385,0.052-5.943-2.723-9-4
				c-0.729-2.336-2.734-8.535,2-8c0.299,1.966-1.35,1.982-2,3c3.639,0.639,3.93-2.07,4-5c0.352-3.602,1.529-4.818,0-8
				c2.045-1.289,1.055-5.611,4-6c-0.055-3.277-2.844-3.823-2-8c0.451-2.284,5.525-5.052,3-7c-1.514,1.486-4.389,1.611-7,2
				c0.26-4.136-1.188-4.021-4-3c-0.17-1.496,0.357-3.689-1-4c-0.014,1.311-2.773,1.273-3,0c0.299-1.966-1.35-1.982-2-3
				c-2.195-2.104-0.207-4.445,1-6c-4.059,0.393-6.967-0.366-7-4c-2.406-1.26-5.314-2.02-7-4c0.49-3.156-1.801-3.531-1-7
				c-4.834,0.168-7.643-1.689-10-4c-1.873-1.904-0.109-2.512,0-5c-6.662-0.337-6.643-7.355-9-12c-1.555-3.555,3.396-0.604,3-3
				c-2.727-0.006-4.492-6.084-2-8c8.518,8.15,18.715,14.62,29,21c2.4,3.934,6.6,6.066,9,10c3.105,2.561,3.658,7.675,7,10
				c0.07-5.07-3.537-6.463-4-11c0-4.667,0-9.333,0-14c-2.379-1.286-2.852-4.48-4-7c3.873,0.872,1.635-4.366,6-3
				c0.846-0.938,6.375-2.136,7,0c3.693,5.777-3.336,8.359-6,11c-0.393,6.393,1.467,10.533,2,16c1.598,1.402,2.555,3.445,3,6
				c3.658-0.658,3.836,2.164,7,2c-0.25-4.416-3.334-5.999-4-10c2.348-0.318,2.238-3.095,4-4c3.068-1.46,4.887,0.914,8,2
				c-0.074,1.742,0.223,3.109,1,4c0.738,5.405-6.064,3.27-4,10c5.736,1.4,1.574-7.093,8-5c1.504-2.163,1.115-6.22,4-7
				c6.632,1.805,12.175-1.385,22-1c-1.057,3.943-6.188,3.812-9,6c1.758,0.575,5.875-1.208,6,1c0.088,3.421-6.088,0.579-6,4
				c-1.402,2.264-4.047,3.286-5,6c-1.332,0-2.666,0-4,0c0.771,4.439-3.306,4.025-5,6c-0.428,4.096,0.928,6.407,2,9
				c7.142,1.839,11.601-3.314,15-2c-1.301,3.033,0.23,8.896-3,10c0-2,0-4,0-6c-4.9-0.234-7.57,1.762-13,1
				c-2.461,1.184,2.048,3.777-1,5c-0.307,5.309,3.361,6.641,4,11c-0.488,3.156,1.803,3.531,1,7c-0.49,4.366,3.082,2.128,1,6
				c3.85,0.484,7.213,1.455,7,6c0.549,4.214-7.818-0.484-7,4c-1.611,6.059,5.287,11.613,0,15c-5.425-5.453-1.096-14.559-7-19
				c0,3.333,0,6.667,0,10C795.534,148.812,792.868,149.812,793.887,154.5z M766.887,49.5c3.537-0.463,6.223-1.777,8-4
				c-2.039-0.294-1.961-2.706-4-3C770.737,46.016,765.958,44.902,766.887,49.5z M774.887,159.5c-0.277-0.277-1.516,0.482-1,1
				C774.165,160.777,775.405,160.018,774.887,159.5z M820.887,180.5c1.572-0.095,3.467,0.134,3-2c-0.666,0-1.332,0-2,0
				C821.891,179.503,821.076,179.689,820.887,180.5z M823.887,183.5c-0.275-0.277-1.518,0.482-1,1
				C823.164,184.777,824.404,184.018,823.887,183.5z M826.887,195.5c0.127,1.793-1.225,2.109-1,4
				C828.672,201.102,828.652,195.182,826.887,195.5C825.205,191.962,823.764,198.764,826.887,195.5z M751.887,200.5
				c0.32-1.225-0.16-6.176-1-3C750.569,198.725,751.049,203.676,751.887,200.5z M749.887,216.5c-0.277-0.277-1.516,0.482-1,1
				C749.165,217.777,750.405,217.018,749.887,216.5z M827.887,236.5c0.057-0.609,0.15-1.184,1-1c-0.113-1.22-0.299-2.368-2-2
				C827.043,234.677,826.715,236.338,827.887,236.5z M812.887,281.5c-0.275-0.277-1.518,0.482-1,1
				C812.164,282.777,813.404,282.018,812.887,281.5z M760.887,485.5c-0.277-0.276-1.518,0.482-1,1
				C760.165,486.776,761.405,486.018,760.887,485.5z M380.888,532.5c-0.125-2.209-4.242-0.425-6-1
				C373.32,534.938,381.583,536.246,380.888,532.5z M560.888,598.5c-0.277-0.276-1.518,0.482-1,1
				C560.165,599.776,561.405,599.018,560.888,598.5z M734.887,631.5c1.711-2.005,1.457-8.106-1-9
				C734.506,625.214,732.618,630.438,734.887,631.5z M738.887,653.5c-0.162,1.162,0.221,1.779,1,2c0.547,1.453-1.168,5.168,1,5
				c0.305-2.333,2.135-4.309-1-5C740.051,654.338,739.667,653.721,738.887,653.5c0.309-2.358,3.473-1.86,3-5
				c-1.986-0.013-1.271-2.729-4-2C735.53,649.401,736.258,651.305,738.887,653.5z M741.887,653.5c0.344,2.322,0.646,4.688,4,4
				c-0.605-2.062,1.615-6.947-2-6C743.774,652.72,743.588,653.868,741.887,653.5z M671.887,766.5c1.707-1.613,0.916-5.154-1-6
				C670.454,762.724,668.59,765.923,671.887,766.5z M682.887,784.5c0.133-2.465,0.152-4.818-1-6c-1.496,0.17-3.689-0.357-4,1
				C680.395,780.327,681.051,783.003,682.887,784.5z"/>
		</g>
		<use xlink:href="#SVGID_1_"  overflow="visible" fill="none" stroke="#00ADEF" stroke-width="17" stroke-miterlimit="10"/>
	</g>
</g>
</svg>
